<?xml version="1.0" standalone="no"?>
<!DOCTYPE svg PUBLIC "-//W3C//DTD SVG 20010904//EN"
 "http://www.w3.org/TR/2001/REC-SVG-20010904/DTD/svg10.dtd">
<svg version="1.0" xmlns="http://www.w3.org/2000/svg"
 width="512.000000pt" height="512.000000pt" viewBox="0 0 512.000000 512.000000"
 preserveAspectRatio="xMidYMid meet">
<metadata>
Created by potrace 1.14, written by Peter Selinger 2001-2017
</metadata>
<g transform="translate(0.000000,512.000000) scale(0.100000,-0.100000)"
fill="#000000" stroke="none">
<path d="M4827 4998 c-90 -19 -213 -110 -461 -341 -193 -180 -575 -566 -886
-896 -269 -285 -288 -305 -430 -461 -63 -69 -124 -134 -135 -146 -35 -37 -128
-138 -207 -225 -43 -47 -90 -99 -105 -115 -15 -16 -64 -70 -108 -119 -44 -48
-91 -100 -103 -114 -86 -94 -169 -186 -185 -204 -10 -12 -37 -42 -60 -67 -23
-25 -78 -86 -122 -135 -44 -50 -84 -95 -90 -101 -21 -23 -151 -168 -167 -187
-17 -19 -143 -160 -163 -181 -5 -6 -41 -47 -80 -91 -38 -44 -77 -87 -85 -95
-22 -24 -130 -147 -179 -203 -22 -27 -41 -46 -41 -44 0 3 45 99 101 213 56
115 129 268 164 339 34 72 104 216 155 320 51 105 134 276 185 380 51 105 126
260 167 345 123 253 255 524 340 700 44 91 135 275 201 410 132 269 141 299
99 357 -31 44 -81 57 -136 36 -75 -30 -473 -237 -528 -275 -14 -10 -28 -18
-31 -18 -7 0 -182 -104 -277 -165 -380 -241 -668 -469 -901 -710 -118 -123
-238 -274 -302 -383 -133 -225 -280 -692 -312 -997 -4 -33 -8 -71 -11 -85 -21
-129 -20 -569 1 -681 2 -10 6 -42 9 -71 18 -159 89 -453 151 -623 20 -55 42
-116 48 -135 18 -59 53 -98 95 -106 99 -19 491 4 707 41 476 83 835 198 1210
389 483 247 881 581 1197 1006 60 82 186 272 237 360 18 30 46 78 63 105 56
92 148 279 172 350 57 166 -2 281 -146 286 -24 1 -58 -1 -75 -5 -18 -4 -33 -4
-33 0 0 15 75 182 119 264 24 47 78 144 119 215 42 72 80 139 86 150 6 11 36
59 66 108 30 48 60 95 65 105 6 10 60 96 120 190 155 243 171 268 255 397 41
64 96 150 122 193 26 42 51 82 55 87 34 40 173 301 202 379 59 159 -15 284
-152 254z m-208 -445 c-49 -81 -196 -314 -277 -438 -139 -213 -144 -221 -286
-448 -75 -120 -136 -222 -136 -228 0 -5 -4 -9 -9 -9 -5 0 -12 -8 -15 -17 -3
-10 -12 -27 -19 -38 -115 -186 -283 -513 -324 -632 -37 -109 -38 -205 -1 -260
36 -54 86 -77 170 -76 l66 1 -15 -36 c-59 -142 -302 -535 -446 -722 -110 -142
-121 -154 -282 -315 -378 -376 -849 -650 -1407 -819 -65 -20 -128 -38 -140
-40 -13 -3 -52 -12 -88 -21 -57 -14 -230 -48 -300 -59 -49 -8 -125 -18 -150
-21 -126 -13 -180 -16 -180 -10 0 16 49 110 67 130 10 11 47 54 83 95 35 41
71 82 80 91 8 8 40 44 70 79 30 35 60 68 65 74 6 6 60 67 120 136 60 69 114
130 120 136 5 6 24 27 40 45 61 70 180 204 190 215 15 16 131 146 152 170 29
34 146 166 172 193 13 14 48 55 79 90 31 34 66 73 77 85 56 62 171 190 187
208 20 23 134 150 169 189 62 67 196 214 209 229 8 10 53 59 100 110 47 51 92
101 101 111 9 10 43 47 75 82 32 35 100 108 149 162 50 54 101 110 115 125
134 145 222 240 260 280 388 412 494 522 761 789 195 196 409 401 417 401 2 0
-7 -17 -19 -37z m-2350 -580 c-6 -15 -21 -48 -34 -73 -24 -45 -185 -376 -295
-605 -32 -66 -108 -223 -170 -350 -62 -126 -143 -293 -180 -370 -37 -77 -112
-230 -165 -340 -101 -207 -204 -420 -330 -680 -418 -865 -469 -965 -529 -1029
-31 -33 -58 -58 -60 -55 -20 20 -116 415 -130 539 -3 25 -9 74 -13 110 -10 84
-10 495 0 580 36 304 103 568 207 825 51 126 146 281 236 385 78 91 121 137
162 178 48 47 185 171 232 210 104 86 106 87 245 190 194 142 468 317 695 440
36 20 79 44 95 54 41 24 46 23 34 -9z"/>
</g>
</svg>
