<?xml version="1.0" standalone="no"?>
<!DOCTYPE svg PUBLIC "-//W3C//DTD SVG 20010904//EN"
 "http://www.w3.org/TR/2001/REC-SVG-20010904/DTD/svg10.dtd">
<svg version="1.0" xmlns="http://www.w3.org/2000/svg"
 width="84.000000pt" height="84.000000pt" viewBox="0 0 84.000000 84.000000"
 preserveAspectRatio="xMidYMid meet">
<metadata>
Created by potrace 1.14, written by Peter Selinger 2001-2017
</metadata>
<g transform="translate(0.000000,84.000000) scale(0.100000,-0.100000)"
fill="#000000" stroke="none">
<path d="M789 795 c-49 -37 -291 -290 -435 -455 -21 -25 -42 -47 -45 -50 -3
-3 -25 -27 -48 -53 -22 -27 -41 -46 -41 -43 0 3 52 112 116 243 64 131 117
246 119 256 9 40 -86 0 -215 -91 -127 -90 -182 -167 -208 -287 -14 -65 -8
-219 10 -270 l15 -40 101 -3 c116 -3 187 15 285 75 100 60 199 174 242 276 15
35 5 67 -21 67 -19 0 13 63 106 210 57 89 70 117 70 150 0 22 -4 40 -8 40 -4
0 -24 -11 -43 -25z m-5 -67 c-4 -7 -19 -31 -34 -53 -57 -85 -122 -199 -135
-235 -14 -39 -11 -51 18 -66 16 -9 12 -18 -35 -89 -98 -147 -258 -242 -432
-259 -42 -4 -40 -1 34 81 25 27 70 79 101 114 63 71 66 74 194 215 108 118
286 304 292 304 2 0 1 -6 -3 -12z m-431 -160 c-20 -40 -85 -173 -144 -295 -59
-123 -112 -223 -117 -223 -27 0 -38 163 -18 259 18 85 48 141 104 193 41 38
188 138 203 138 4 0 -8 -33 -28 -72z"/>
</g>
</svg>
